<?xml version="1.0" encoding="UTF-8" standalone="no"?>
<svg
   xmlns:dc="http://purl.org/dc/elements/1.1/"
   xmlns:cc="http://creativecommons.org/ns#"
   xmlns:rdf="http://www.w3.org/1999/02/22-rdf-syntax-ns#"
   xmlns:svg="http://www.w3.org/2000/svg"
   xmlns="http://www.w3.org/2000/svg"
   xmlns:sodipodi="http://sodipodi.sourceforge.net/DTD/sodipodi-0.dtd"
   xmlns:inkscape="http://www.inkscape.org/namespaces/inkscape"
   version="1.1"
   id="Layer_1"
   x="0px"
   y="0px"
   viewBox="0 0 125.76169 141.59263"
   xml:space="preserve"
   sodipodi:docname="shopify.svg"
   width="125.76169"
   height="141.59264"
   inkscape:version="1.0.2 (e86c870879, 2021-01-15)"><metadata
   id="metadata414"><rdf:RDF><cc:Work
       rdf:about=""><dc:format>image/svg+xml</dc:format><dc:type
         rdf:resource="http://purl.org/dc/dcmitype/StillImage" /><dc:title></dc:title></cc:Work></rdf:RDF></metadata><defs
   id="defs412"><clipPath
     clipPathUnits="userSpaceOnUse"
     id="clipPath418"><rect
       style="fill:#0000ff;fill-rule:evenodd"
       id="rect420"
       width="131.11574"
       height="147.88921"
       x="-5.3540521"
       y="-5.9023495" /></clipPath></defs><sodipodi:namedview
   pagecolor="#ffffff"
   bordercolor="#666666"
   borderopacity="1"
   objecttolerance="10"
   gridtolerance="10"
   guidetolerance="10"
   inkscape:pageopacity="0"
   inkscape:pageshadow="2"
   inkscape:window-width="1920"
   inkscape:window-height="1011"
   id="namedview410"
   showgrid="false"
   fit-margin-top="0"
   fit-margin-left="0"
   fit-margin-right="0"
   fit-margin-bottom="0"
   inkscape:zoom="2.636"
   inkscape:cx="250"
   inkscape:cy="71.005776"
   inkscape:window-x="0"
   inkscape:window-y="0"
   inkscape:window-maximized="1"
   inkscape:current-layer="Layer_1" />
<style
   type="text/css"
   id="style385">
	.st0{fill:#95BF47;}
	.st1{fill:#5E8E3E;}
	.st2{fill:#FFFFFF;}
</style>
<g
   id="g407"
   clip-path="url(#clipPath418)"
   transform="translate(0,-0.39422507)">
	<g
   id="g395">
		<path
   class="st0"
   d="m 107.4,27.1 c -0.1,-0.7 -0.7,-1.1 -1.2,-1.1 -0.5,0 -10.4,-0.2 -10.4,-0.2 0,0 -8.3,-8 -9.1,-8.9 -0.8,-0.8 -2.4,-0.6 -3,-0.4 0,0 -1.6,0.5 -4.2,1.3 -0.4,-1.4 -1.1,-3.1 -2,-4.9 C 74.6,7.3 70.2,4.3 65,4.3 c 0,0 0,0 0,0 -0.4,0 -0.7,0 -1.1,0.1 C 63.7,4.2 63.6,4 63.4,3.9 61.1,1.5 58.2,0.3 54.7,0.4 48,0.6 41.3,5.5 35.8,14.1 32,20.2 29.1,27.8 28.2,33.7 20.5,36.1 15.1,37.8 14.9,37.8 11,39 10.9,39.1 10.4,42.8 10.2,45.6 0,124.5 0,124.5 l 85.6,14.8 37.1,-9.2 c -0.1,0 -15.2,-102.3 -15.3,-103 z M 75.2,19.2 c -2,0.6 -4.2,1.3 -6.6,2.1 0,-3.4 -0.5,-8.2 -2,-12.2 5.1,0.8 7.6,6.6 8.6,10.1 z m -11.1,3.4 c -4.5,1.4 -9.4,2.9 -14.3,4.4 1.4,-5.3 4,-10.5 7.2,-14 1.2,-1.3 2.9,-2.7 4.8,-3.5 2,3.9 2.4,9.4 2.3,13.1 z M 54.9,4.9 c 1.6,0 2.9,0.3 4,1.1 -1.8,0.9 -3.6,2.3 -5.2,4.1 -4.3,4.6 -7.6,11.7 -8.9,18.6 C 40.7,30 36.7,31.2 33.1,32.3 35.5,21.4 44.6,5.2 54.9,4.9 Z"
   id="path387" />
		<g
   id="g393">
			<path
   class="st1"
   d="m 106.2,26 c -0.5,0 -10.4,-0.2 -10.4,-0.2 0,0 -8.3,-8 -9.1,-8.9 -0.3,-0.3 -0.7,-0.5 -1.1,-0.5 v 122.9 l 37.1,-9.2 c 0,0 -15.1,-102.3 -15.2,-103 -0.2,-0.7 -0.8,-1.1 -1.3,-1.1 z"
   id="path389" />
			<path
   class="st2"
   d="m 65,45.1 -4.3,16.1 c 0,0 -4.8,-2.2 -10.5,-1.8 -8.4,0.5 -8.4,5.8 -8.4,7.1 0.5,7.2 19.4,8.8 20.5,25.7 0.8,13.3 -7,22.4 -18.4,23.1 C 30.3,116 22.8,108 22.8,108 l 2.9,-12.3 c 0,0 7.6,5.7 13.6,5.3 3.9,-0.2 5.4,-3.5 5.2,-5.7 C 43.9,85.9 28.5,86.5 27.5,71 26.7,58 35.2,44.9 54,43.7 c 7.3,-0.5 11,1.4 11,1.4 z"
   id="path391" />
		</g>
	</g>
	<g
   id="g405">
		<path
   id="s_4_"
   d="m 172.9,79.4 c -4.3,-2.3 -6.5,-4.3 -6.5,-7 0,-3.4 3.1,-5.6 7.9,-5.6 5.6,0 10.6,2.3 10.6,2.3 l 3.9,-12 c 0,0 -3.6,-2.8 -14.2,-2.8 -14.8,0 -25.1,8.5 -25.1,20.4 0,6.8 4.8,11.9 11.2,15.6 5.2,2.9 7,5 7,8.1 0,3.2 -2.6,5.8 -7.4,5.8 -7.1,0 -13.9,-3.7 -13.9,-3.7 l -4.2,12 c 0,0 6.2,4.2 16.7,4.2 15.2,0 26.2,-7.5 26.2,-21 -0.1,-7.3 -5.6,-12.5 -12.2,-16.3 z" />
		<path
   id="h_4_"
   d="m 233.5,54.1 c -7.5,0 -13.4,3.6 -17.9,9 L 215.4,63 221.9,29 H 205 l -16.5,86.6 h 16.9 L 211,86 c 2.2,-11.2 8,-18.1 13.4,-18.1 3.8,0 5.3,2.6 5.3,6.3 0,2.3 -0.2,5.2 -0.7,7.5 l -6.4,33.9 h 16.9 l 6.6,-35 c 0.7,-3.7 1.2,-8.1 1.2,-11.1 0.1,-9.6 -4.9,-15.4 -13.8,-15.4 z" />
		<path
   id="o_4_"
   d="m 285.7,54.1 c -20.4,0 -33.9,18.4 -33.9,38.9 0,13.1 8.1,23.7 23.3,23.7 20,0 33.5,-17.9 33.5,-38.9 0.1,-12.1 -7,-23.7 -22.9,-23.7 z m -8.3,49.7 c -5.8,0 -8.2,-4.9 -8.2,-11.1 0,-9.7 5,-25.5 14.2,-25.5 6,0 8,5.2 8,10.2 0,10.4 -5.1,26.4 -14,26.4 z" />
		<path
   id="p_4_"
   d="m 352,54.1 c -11.4,0 -17.9,10.1 -17.9,10.1 h -0.2 l 1,-9.1 h -15 c -0.7,6.1 -2.1,15.5 -3.4,22.5 l -11.8,62 h 16.9 l 4.7,-25.1 h 0.4 c 0,0 3.5,2.2 9.9,2.2 19.9,0 32.9,-20.4 32.9,-41 0,-11.4 -5.1,-21.6 -17.5,-21.6 z M 335.8,104 c -4.4,0 -7,-2.5 -7,-2.5 l 2.8,-15.8 c 2,-10.6 7.5,-17.6 13.4,-17.6 5.2,0 6.8,4.8 6.8,9.3 0,11 -6.5,26.6 -16,26.6 z" />
		<path
   id="dot_4_"
   d="m 393.7,29.8 c -5.4,0 -9.7,4.3 -9.7,9.8 0,5 3.2,8.5 8,8.5 h 0.2 c 5.3,0 9.8,-3.6 9.9,-9.8 0,-4.9 -3.3,-8.5 -8.4,-8.5 z" />
		<polygon
   id="i_4_"
   points="398.4,55.5 381.4,55.5 370,115.5 386.9,115.5 " />
		<path
   id="f_4_"
   d="m 441.5,55.4 h -11.8 l 0.6,-2.8 c 1,-5.8 4.4,-10.9 10.1,-10.9 3,0 5.4,0.9 5.4,0.9 l 3.3,-13.3 c 0,0 -2.9,-1.5 -9.2,-1.5 -6,0 -12,1.7 -16.6,5.6 -5.8,4.9 -8.5,12 -9.8,19.2 l -0.5,2.8 h -7.9 l -2.5,12.8 h 7.9 l -9,47.4 h 16.9 l 9,-47.4 h 11.7 z" />
		<path
   id="y_4_"
   d="m 482.3,55.5 c 0,0 -10.6,26.7 -15.3,41.3 h -0.2 c -0.3,-4.7 -4.2,-41.3 -4.2,-41.3 h -17.8 l 10.2,55.1 c 0.2,1.2 0.1,2 -0.4,2.8 -2,3.8 -5.3,7.5 -9.2,10.2 -3.2,2.3 -6.8,3.8 -9.6,4.8 l 4.7,14.4 c 3.4,-0.7 10.6,-3.6 16.6,-9.2 7.7,-7.2 14.9,-18.4 22.2,-33.6 L 500,55.5 Z" />
	</g>
</g>
</svg>
